<?xml version="1.0" ?><svg contentScriptType="text/ecmascript" contentStyleType="text/css" enable-background="new 0 0 2048 2048" height="2048px" id="Layer_1" preserveAspectRatio="xMidYMid meet" version="1.1" viewBox="0.0 0 1792.0 2048" width="1792.0px" xml:space="preserve" xmlns="http://www.w3.org/2000/svg" xmlns:xlink="http://www.w3.org/1999/xlink" zoomAndPan="magnify"><path d="M1664,1088c-101.333-157.333-228.333-275-381-353c40.667,69.333,61,144.333,61,225c0,123.333-43.833,228.833-131.5,316.5  S1019.333,1408,896,1408s-228.833-43.833-316.5-131.5S448,1083.333,448,960c0-80.667,20.333-155.667,61-225  c-152.667,78-279.667,195.667-381,353c88.667,136.667,199.833,245.5,333.5,326.5S740,1536,896,1536s300.833-40.5,434.5-121.5  S1575.333,1224.667,1664,1088z M944,704c0-13.333-4.667-24.667-14-34s-20.667-14-34-14c-83.333,0-154.833,29.833-214.5,89.5  S592,876.667,592,960c0,13.333,4.667,24.667,14,34s20.667,14,34,14s24.667-4.667,34-14s14-20.667,14-34  c0-57.333,20.333-106.333,61-147s89.667-61,147-61c13.333,0,24.667-4.667,34-14S944,717.333,944,704z M1792,1088  c0,22.667-6.667,45.667-20,69c-93.333,153.333-218.833,276.167-376.5,368.5S1071.333,1664,896,1664s-341.833-46.333-499.5-139  S113.333,1309.667,20,1157c-13.333-23.333-20-46.333-20-69s6.667-45.667,20-69c93.333-152.667,218.833-275.333,376.5-368  S720.667,512,896,512s341.833,46.333,499.5,139s283.167,215.333,376.5,368C1785.333,1042.333,1792,1065.333,1792,1088z"/> 
 <style>
    path {
      fill: #B0B0B0;
    }
  </style>
</svg>